HIERARCHY
ROOT Hips
{
	OFFSET 0.000000 0.000000 0.000000
	CHANNELS 6 Xposition Yposition Zposition Zrotation Yrotation Xrotation 
	JOINT LHipJoint
	{
		OFFSET 0.000000 0.000000 0.000000
		CHANNELS 3 Zrotation Yrotation Xrotation
		JOINT LeftUpLeg
		{
			OFFSET 1.363060 -1.794630 0.839290
			CHANNELS 3 Zrotation Yrotation Xrotation
			JOINT LeftLeg
			{
				OFFSET 2.448110 -6.726130 0.000000
				CHANNELS 3 Zrotation Yrotation Xrotation
				JOINT LeftFoot
				{
					OFFSET 2.562200 -7.039590 0.000000
					CHANNELS 3 Zrotation Yrotation Xrotation
					JOINT LeftToeBase
					{
						OFFSET 0.157640 -0.433110 2.322550
						CHANNELS 3 Zrotation Yrotation Xrotation
						End Site
						{
							OFFSET 0.000000 0.000000 0.000000
						}
					}
				}
			}
		}
	}
	JOINT RHipJoint
	{
		OFFSET 0.000000 0.000000 0.000000
		CHANNELS 3 Zrotation Yrotation Xrotation
		JOINT RightUpLeg
		{
			OFFSET -1.305520 -1.794630 0.839290
			CHANNELS 3 Zrotation Yrotation Xrotation
			JOINT RightLeg
			{
				OFFSET -2.542530 -6.985550 0.000000
				CHANNELS 3 Zrotation Yrotation Xrotation
				JOINT RightFoot
				{
					OFFSET -2.568260 -7.056230 0.000000
					CHANNELS 3 Zrotation Yrotation Xrotation
					JOINT RightToeBase
					{
						OFFSET -0.164730 -0.452590 2.363150
						CHANNELS 3 Zrotation Yrotation Xrotation
						End Site
						{
							OFFSET 0.000000 0.000000 0.000000
						}
					}
				}
			}
		}
	}
	JOINT LowerBack
	{
		OFFSET 0.000000 0.000000 0.000000
		CHANNELS 3 Zrotation Yrotation Xrotation
		JOINT Spine
		{
			OFFSET 0.028270 2.035590 -0.193380
			CHANNELS 3 Zrotation Yrotation Xrotation
			JOINT Spine1
			{
				OFFSET 0.056720 2.048850 -0.042750
				CHANNELS 3 Zrotation Yrotation Xrotation
				JOINT Neck
				{
					OFFSET 0.000000 0.000000 0.000000
					CHANNELS 3 Zrotation Yrotation Xrotation
					JOINT Neck1
					{
						OFFSET -0.054170 1.746240 0.172020
						CHANNELS 3 Zrotation Yrotation Xrotation
						JOINT Head
						{
							OFFSET 0.104070 1.761360 -0.123970
							CHANNELS 3 Zrotation Yrotation Xrotation
							End Site
							{
								OFFSET 0.000000 0.000000 0.000000
							}
						}
					}
				}
				JOINT LeftShoulder
				{
					OFFSET 0.000000 0.000000 0.000000
					CHANNELS 3 Zrotation Yrotation Xrotation
					JOINT LeftArm
					{
						OFFSET 3.362410 1.200890 -0.311210
						CHANNELS 3 Zrotation Yrotation Xrotation
						JOINT LeftForeArm
						{
							OFFSET 4.983000 -0.000000 -0.000000
							CHANNELS 3 Zrotation Yrotation Xrotation
							JOINT LeftHand
							{
								OFFSET 3.483560 -0.000000 -0.000000
								CHANNELS 3 Zrotation Yrotation Xrotation
								JOINT LeftFingerBase
								{
									OFFSET 0.000000 0.000000 0.000000
									CHANNELS 3 Zrotation Yrotation Xrotation
									JOINT LeftHandIndex1
									{
										OFFSET 0.715260 -0.000000 -0.000000
										CHANNELS 3 Zrotation Yrotation Xrotation
										End Site
										{
											OFFSET 0.000000 0.000000 0.000000
										}
									}
								}
								JOINT LThumb
								{
									OFFSET 0.000000 0.000000 0.000000
									CHANNELS 3 Zrotation Yrotation Xrotation
									End Site
									{
										OFFSET 0.000000 0.000000 0.000000
									}
								}
							}
						}
					}
				}
				JOINT RightShoulder
				{
					OFFSET 0.000000 0.000000 0.000000
					CHANNELS 3 Zrotation Yrotation Xrotation
					JOINT RightArm
					{
						OFFSET -3.136600 1.374050 -0.404650
						CHANNELS 3 Zrotation Yrotation Xrotation
						JOINT RightForeArm
						{
							OFFSET -5.241900 -0.000000 -0.000000
							CHANNELS 3 Zrotation Yrotation Xrotation
							JOINT RightHand
							{
								OFFSET -3.444170 -0.000000 -0.000000
								CHANNELS 3 Zrotation Yrotation Xrotation
								JOINT RightFingerBase
								{
									OFFSET 0.000000 0.000000 0.000000
									CHANNELS 3 Zrotation Yrotation Xrotation
									JOINT RightHandIndex1
									{
										OFFSET -0.622530 -0.000000 -0.000000
										CHANNELS 3 Zrotation Yrotation Xrotation
										End Site
										{
											OFFSET 0.000000 0.000000 0.000000
										}
									}
								}
								JOINT RThumb
								{
									OFFSET 0.000000 0.000000 0.000000
									CHANNELS 3 Zrotation Yrotation Xrotation
									End Site
									{
										OFFSET 0.000000 0.000000 0.000000
									}
								}
							}
						}
					}
				}
			}
		}
	}
}
MOTION
Frames: 5
Frame Time: 0.008333
-22.641592 15.724324 5.453033 -1.874921 8.003732 13.383158 3.642444 14.703744 3.390512 -32.452420 -8.188668 -20.905068 1.005061 3.852070 53.290064 6.932933 11.539898 -26.046177 103.647445 -22.082317 111.744394 24.355099 -18.571077 13.398224 -10.959992 4.323276 -72.608443 152.317601 -34.379122 116.749031 -104.262926 -33.435432 175.072141 96.424600 -27.076917 -88.160776 -19.649063 1.112383 -2.625767 8.905868 -1.292873 -3.510163 6.031752 -5.010338 17.530581 -2.064321 2.213454 -22.223866 3.433624 2.546645 12.683303 -6.323546 9.736487 7.001402 9.858235 -3.077908 0.583816 -90.466139 -46.304687 31.198525 35.826378 -69.882101 16.620747 7.141798 -35.514858 2.719860 0.000002 -0.000001 0.000002 0.000000 -0.000000 -0.000000 -0.000000 0.000000 -0.000000 -1.870414 -8.558195 0.863193 69.705352 8.619561 13.421851 8.555823 70.408218 51.186957 -22.871171 22.115557 -1.684874 -0.000005 0.000004 -0.000002 -0.000000 -0.000000 -0.000000 0.000000 0.000000 0.000000 
-22.627177 15.805856 5.775901 -2.486391 7.513214 13.440836 3.536548 15.358360 3.780174 -31.027008 -7.684920 -21.124235 0.871245 4.289223 53.363273 6.819294 11.079317 -22.597697 102.980220 -21.247261 111.137646 24.264664 -20.181435 13.702732 -8.922997 6.857314 -73.329824 149.254050 -34.969346 121.777966 -107.829964 -31.687490 175.500213 92.228821 -26.345513 -85.292844 -19.573204 1.343407 -3.114629 9.200451 -1.328720 -3.487840 6.769858 -5.422570 17.055207 -2.534823 2.332356 -21.935649 3.398813 2.755525 12.874877 -6.613644 10.315668 6.275138 9.342795 -3.297922 0.648672 -90.292559 -46.749868 32.170002 38.327500 -69.966425 14.908435 7.263526 -35.698133 2.695713 0.000002 -0.000001 0.000002 -0.000000 0.000000 0.000000 0.000000 0.000000 -0.000000 -2.314347 -8.385975 0.766371 69.582213 7.236882 14.021383 6.643743 70.927643 51.085894 -23.795248 22.376961 -1.895261 -0.000005 0.000004 -0.000002 -0.000000 0.000000 -0.000000 0.000000 0.000000 -0.000000 
-22.618619 15.890541 6.094234 -3.067755 6.833289 13.419938 3.517750 15.820941 4.344075 -29.498310 -7.338911 -21.451689 0.011815 4.765410 53.450660 7.707752 11.758419 -18.719291 100.179992 -20.575234 109.966800 24.113396 -21.866165 13.870209 -6.983916 9.641347 -73.309382 147.652632 -36.195024 127.074099 -107.047684 -30.767828 175.365931 93.694038 -26.157081 -86.418591 -19.636996 1.643994 -3.466246 9.530132 -1.348346 -3.514855 6.577673 -5.381066 16.600046 -2.022244 2.475731 -21.633864 3.409062 2.787847 13.074270 -6.918018 10.833801 5.702649 9.836298 -3.558846 0.643905 -89.942508 -47.022166 32.736444 40.122802 -70.195898 14.052334 7.526299 -36.108555 2.638739 0.000002 -0.000001 0.000002 -0.000000 0.000000 0.000000 -0.000000 0.000000 -0.000000 -1.758272 -8.213748 0.658582 69.469535 5.845822 14.248305 5.666453 71.369343 50.327559 -23.747066 22.202480 -1.873474 -0.000005 0.000004 -0.000002 0.000000 0.000000 0.000000 0.000000 -0.000000 0.000000 
-22.591441 15.972523 6.415871 -3.869464 5.957866 13.370761 3.541218 16.518369 5.060272 -27.979149 -6.975167 -21.922862 -0.154427 5.527695 53.314759 8.027491 11.517397 -14.720614 98.880637 -19.518196 109.011829 23.280203 -23.681106 13.932275 -3.718282 12.792024 -72.279767 145.113126 -37.501720 133.444202 -104.618424 -30.657802 173.961207 98.530475 -25.624999 -90.166011 -19.226976 1.930545 -4.011230 9.790285 -1.261311 -3.435159 6.419873 -5.300255 16.570576 -1.758795 2.647119 -21.688243 3.388892 2.899138 13.265981 -6.914152 11.512155 6.507647 10.000887 -3.695527 0.536048 -89.597868 -47.555899 33.277023 41.713422 -70.452715 13.227613 7.738734 -36.594906 2.606618 0.000002 -0.000001 0.000002 0.000000 0.000000 0.000000 -0.000000 0.000000 -0.000000 -1.300535 -8.175204 0.533056 69.221589 4.846148 14.354621 4.983350 71.802122 49.599794 -23.396684 21.998929 -1.785951 -0.000005 0.000004 -0.000002 0.000000 -0.000000 0.000000 -0.000000 0.000000 0.000000 
-22.565766 16.065315 6.744970 -4.692938 5.260010 13.244772 3.387447 17.265122 5.749003 -26.303989 -6.324280 -22.393132 0.203100 6.259880 52.986483 7.951002 10.476043 -10.421682 98.270778 -18.261011 108.144873 22.671313 -25.306708 13.927567 -0.178088 15.113603 -70.531982 141.297833 -37.755951 140.959948 -106.235418 -30.952194 173.008094 97.105774 -24.389442 -89.535167 -18.951034 2.033763 -4.548905 10.313066 -1.174754 -3.259055 7.101763 -5.561178 16.217957 -2.308153 2.706099 -21.463351 3.270724 3.050882 13.500042 -7.023391 11.911173 7.857629 9.059842 -3.903230 0.591712 -89.086467 -47.967394 34.010873 43.900391 -70.431643 11.909058 7.068019 -36.762647 2.851949 0.000002 -0.000001 0.000002 0.000000 0.000000 -0.000000 -0.000000 0.000000 0.000000 -1.727609 -7.826554 0.293891 68.871221 3.419107 14.669671 3.393095 72.246534 48.590604 -23.505793 21.746757 -1.791626 -0.000005 0.000004 -0.000002 -0.000000 0.000000 -0.000000 -0.000000 0.000000 -0.000000 
